# xmcd
#
# Track frame offsets: 
#        150
#        14041
#        28048
#        43207
#        58460
#        72633
#        85981
#        99241
#        113207
#        126249
#        142358
#        158998
#        175265
#        191140
#        205009
#        219108
#        231265
#        242620
#        255440
#        268471
#
# Disc length: 3734 seconds
#
# Revision: 1
# Processed by: cddbd v1.5.2PL0 Copyright (c) Steve Scherf et al.
# Submitted via: ExactAudioCopy v1.1
#
DISCID=390e9414
DTITLE=Leroy Carr - The Best Of Leroy Carr Whiskey Is My Habit Good Wo
DTITLE=men Is All I Crave disc 1
DYEAR=2004
DGENRE=Blues
TTITLE0=How Long - How Long Blues (mono)
TTITLE1=Prison Bound Blues (mono)
TTITLE2=Straight Alky Blues, Part 1 (mono)
TTITLE3=Straight Alky Blues, Part 2 (mono)
TTITLE4=Gambler's Blues  (mono)
TTITLE5=Sloppy Drunk Blues  (mono)
TTITLE6=Papa's On The House Top (mono)
TTITLE7=Midnight Hour Blues (mono)
TTITLE8=Mean Mistreater Mama (mono)
TTITLE9=Hurry Down Sunshine (mono)
TTITLE10=Corn Licker Blues (mono)
TTITLE11=Shady Lane Blues (mono)
TTITLE12=Blues Before Sunrise (mono)
TTITLE13=Take A Walk Around The Corner (mono)
TTITLE14=I Ain't Got No Money Now (mono)
TTITLE15=Motherless Child (mono)
TTITLE16=My Woman's Gone Wrong (mono)
TTITLE17=Southbound Blues (mono)
TTITLE18=Barrelhouse Woman (mono)
TTITLE19=Muddy Water (mono)
EXTD=
EXTT0=
EXTT1=
EXTT2=
EXTT3=
EXTT4=
EXTT5=
EXTT6=
EXTT7=
EXTT8=
EXTT9=
EXTT10=
EXTT11=
EXTT12=
EXTT13=
EXTT14=
EXTT15=
EXTT16=
EXTT17=
EXTT18=
EXTT19=
PLAYORDER=
